<mxfile host="app.diagrams.net" modified="2024-03-03T17:49:45.934Z" agent="Mozilla/5.0 (Macintosh; Intel Mac OS X 10_15_7) AppleWebKit/537.36 (KHTML, like Gecko) Chrome/116.0.0.0 Safari/537.36" etag="kj73YGR7dDB_-eQYRaSw" version="24.0.1" type="device">
  <diagram name="Страница — 1" id="lXitKjhbQKxSVNg4Td3a">
    <mxGraphModel dx="1781" dy="1829" grid="1" gridSize="10" guides="1" tooltips="1" connect="1" arrows="1" fold="1" page="1" pageScale="1" pageWidth="827" pageHeight="1169" math="0" shadow="0">
      <root>
        <mxCell id="0" />
        <mxCell id="1" parent="0" />
        <mxCell id="a0niVXII9TF6bNpHhuru-1" value="users (Пользователи)" style="swimlane;fontStyle=0;childLayout=stackLayout;horizontal=1;startSize=30;horizontalStack=0;resizeParent=1;resizeParentMax=0;resizeLast=0;collapsible=1;marginBottom=0;whiteSpace=wrap;html=1;" parent="1" vertex="1">
          <mxGeometry x="470" y="20" width="240" height="210" as="geometry" />
        </mxCell>
        <mxCell id="a0niVXII9TF6bNpHhuru-2" value="&lt;span style=&quot;color: rgb(0, 0, 0); font-family: Helvetica; font-size: 12px; font-style: normal; font-variant-ligatures: normal; font-variant-caps: normal; font-weight: 400; letter-spacing: normal; orphans: 2; text-align: left; text-indent: 0px; text-transform: none; widows: 2; word-spacing: 0px; -webkit-text-stroke-width: 0px; white-space: normal; background-color: rgb(251, 251, 251); text-decoration-thickness: initial; text-decoration-style: initial; text-decoration-color: initial; display: inline !important; float: none;&quot;&gt;user_id SERIAL&amp;nbsp;&lt;/span&gt;&amp;nbsp;PK" style="text;strokeColor=none;fillColor=none;align=left;verticalAlign=middle;spacingLeft=4;spacingRight=4;overflow=hidden;points=[[0,0.5],[1,0.5]];portConstraint=eastwest;rotatable=0;whiteSpace=wrap;html=1;" parent="a0niVXII9TF6bNpHhuru-1" vertex="1">
          <mxGeometry y="30" width="240" height="30" as="geometry" />
        </mxCell>
        <mxCell id="a0niVXII9TF6bNpHhuru-3" value="user_name (имя пользователя)&amp;nbsp; VARCHAR() NOT NULL" style="text;strokeColor=none;fillColor=none;align=left;verticalAlign=middle;spacingLeft=4;spacingRight=4;overflow=hidden;points=[[0,0.5],[1,0.5]];portConstraint=eastwest;rotatable=0;whiteSpace=wrap;html=1;" parent="a0niVXII9TF6bNpHhuru-1" vertex="1">
          <mxGeometry y="60" width="240" height="30" as="geometry" />
        </mxCell>
        <mxCell id="a0niVXII9TF6bNpHhuru-4" value="email (е-мыло)&amp;nbsp; &amp;nbsp; &amp;nbsp; &amp;nbsp; &amp;nbsp; &amp;nbsp; &amp;nbsp; &amp;nbsp; &amp;nbsp; &amp;nbsp; &amp;nbsp; &amp;nbsp; &amp;nbsp; &amp;nbsp; &amp;nbsp; &amp;nbsp; VARCHAR() NOT NULL" style="text;strokeColor=none;fillColor=none;align=left;verticalAlign=middle;spacingLeft=4;spacingRight=4;overflow=hidden;points=[[0,0.5],[1,0.5]];portConstraint=eastwest;rotatable=0;whiteSpace=wrap;html=1;" parent="a0niVXII9TF6bNpHhuru-1" vertex="1">
          <mxGeometry y="90" width="240" height="30" as="geometry" />
        </mxCell>
        <mxCell id="a0niVXII9TF6bNpHhuru-36" value="password_hash (хэш пароля)&amp;nbsp; &amp;nbsp; &amp;nbsp; VARCHAR() NOT NULL" style="text;strokeColor=none;fillColor=none;align=left;verticalAlign=middle;spacingLeft=4;spacingRight=4;overflow=hidden;points=[[0,0.5],[1,0.5]];portConstraint=eastwest;rotatable=0;whiteSpace=wrap;html=1;" parent="a0niVXII9TF6bNpHhuru-1" vertex="1">
          <mxGeometry y="120" width="240" height="30" as="geometry" />
        </mxCell>
        <mxCell id="a0niVXII9TF6bNpHhuru-35" value="delivery_address (адрес доставки) TEXT NOT NULL" style="text;strokeColor=none;fillColor=none;align=left;verticalAlign=middle;spacingLeft=4;spacingRight=4;overflow=hidden;points=[[0,0.5],[1,0.5]];portConstraint=eastwest;rotatable=0;whiteSpace=wrap;html=1;" parent="a0niVXII9TF6bNpHhuru-1" vertex="1">
          <mxGeometry y="150" width="240" height="30" as="geometry" />
        </mxCell>
        <mxCell id="a0niVXII9TF6bNpHhuru-39" value="user_phone (телефон пользователя)&amp;nbsp; VARCHAR() NOT NULL" style="text;strokeColor=none;fillColor=none;align=left;verticalAlign=middle;spacingLeft=4;spacingRight=4;overflow=hidden;points=[[0,0.5],[1,0.5]];portConstraint=eastwest;rotatable=0;whiteSpace=wrap;html=1;" parent="a0niVXII9TF6bNpHhuru-1" vertex="1">
          <mxGeometry y="180" width="240" height="30" as="geometry" />
        </mxCell>
        <mxCell id="a0niVXII9TF6bNpHhuru-5" value="reviews (Отзывы)" style="swimlane;fontStyle=0;childLayout=stackLayout;horizontal=1;startSize=30;horizontalStack=0;resizeParent=1;resizeParentMax=0;resizeLast=0;collapsible=1;marginBottom=0;whiteSpace=wrap;html=1;" parent="1" vertex="1">
          <mxGeometry x="60" y="-20" width="290" height="210" as="geometry" />
        </mxCell>
        <mxCell id="a0niVXII9TF6bNpHhuru-6" value="review_id SERIAL PK" style="text;strokeColor=none;fillColor=none;align=left;verticalAlign=middle;spacingLeft=4;spacingRight=4;overflow=hidden;points=[[0,0.5],[1,0.5]];portConstraint=eastwest;rotatable=0;whiteSpace=wrap;html=1;" parent="a0niVXII9TF6bNpHhuru-5" vertex="1">
          <mxGeometry y="30" width="290" height="30" as="geometry" />
        </mxCell>
        <mxCell id="a0niVXII9TF6bNpHhuru-7" value="user_id (идентификатор пользователя)&lt;div&gt;INTEGER NOT NULL (РК ??)&lt;/div&gt;" style="text;strokeColor=none;fillColor=none;align=left;verticalAlign=middle;spacingLeft=4;spacingRight=4;overflow=hidden;points=[[0,0.5],[1,0.5]];portConstraint=eastwest;rotatable=0;whiteSpace=wrap;html=1;" parent="a0niVXII9TF6bNpHhuru-5" vertex="1">
          <mxGeometry y="60" width="290" height="30" as="geometry" />
        </mxCell>
        <mxCell id="a0niVXII9TF6bNpHhuru-8" value="wine_id (идентификатор вина)&lt;div&gt;INTEGER NOT NULL (РК ??)&lt;/div&gt;" style="text;strokeColor=none;fillColor=none;align=left;verticalAlign=middle;spacingLeft=4;spacingRight=4;overflow=hidden;points=[[0,0.5],[1,0.5]];portConstraint=eastwest;rotatable=0;whiteSpace=wrap;html=1;" parent="a0niVXII9TF6bNpHhuru-5" vertex="1">
          <mxGeometry y="90" width="290" height="30" as="geometry" />
        </mxCell>
        <mxCell id="a0niVXII9TF6bNpHhuru-41" value="score (оценка вина)&amp;nbsp;&lt;div&gt;INTEGER NOT NULL&lt;/div&gt;" style="text;strokeColor=none;fillColor=none;align=left;verticalAlign=middle;spacingLeft=4;spacingRight=4;overflow=hidden;points=[[0,0.5],[1,0.5]];portConstraint=eastwest;rotatable=0;whiteSpace=wrap;html=1;" parent="a0niVXII9TF6bNpHhuru-5" vertex="1">
          <mxGeometry y="120" width="290" height="30" as="geometry" />
        </mxCell>
        <mxCell id="a0niVXII9TF6bNpHhuru-43" value="text_review (текст отзыва)&lt;div&gt;TEXT NOT NULL&lt;/div&gt;" style="text;strokeColor=none;fillColor=none;align=left;verticalAlign=middle;spacingLeft=4;spacingRight=4;overflow=hidden;points=[[0,0.5],[1,0.5]];portConstraint=eastwest;rotatable=0;whiteSpace=wrap;html=1;" parent="a0niVXII9TF6bNpHhuru-5" vertex="1">
          <mxGeometry y="150" width="290" height="30" as="geometry" />
        </mxCell>
        <mxCell id="a0niVXII9TF6bNpHhuru-44" value="review_date (дата отзыва)&lt;div&gt;TIMESTAMP&lt;/div&gt;" style="text;strokeColor=none;fillColor=none;align=left;verticalAlign=middle;spacingLeft=4;spacingRight=4;overflow=hidden;points=[[0,0.5],[1,0.5]];portConstraint=eastwest;rotatable=0;whiteSpace=wrap;html=1;" parent="a0niVXII9TF6bNpHhuru-5" vertex="1">
          <mxGeometry y="180" width="290" height="30" as="geometry" />
        </mxCell>
        <mxCell id="a0niVXII9TF6bNpHhuru-13" value="orders (Заказы)" style="swimlane;fontStyle=0;childLayout=stackLayout;horizontal=1;startSize=30;horizontalStack=0;resizeParent=1;resizeParentMax=0;resizeLast=0;collapsible=1;marginBottom=0;whiteSpace=wrap;html=1;" parent="1" vertex="1">
          <mxGeometry x="-100" y="210" width="380" height="210" as="geometry" />
        </mxCell>
        <mxCell id="a0niVXII9TF6bNpHhuru-14" value="&lt;span style=&quot;color: rgb(0, 0, 0); font-family: Helvetica; font-size: 12px; font-style: normal; font-variant-ligatures: normal; font-variant-caps: normal; font-weight: 400; letter-spacing: normal; orphans: 2; text-align: left; text-indent: 0px; text-transform: none; widows: 2; word-spacing: 0px; -webkit-text-stroke-width: 0px; white-space: normal; background-color: rgb(251, 251, 251); text-decoration-thickness: initial; text-decoration-style: initial; text-decoration-color: initial; display: inline !important; float: none;&quot;&gt;order_id SERIAL&lt;/span&gt;&amp;nbsp;PK" style="text;strokeColor=none;fillColor=none;align=left;verticalAlign=middle;spacingLeft=4;spacingRight=4;overflow=hidden;points=[[0,0.5],[1,0.5]];portConstraint=eastwest;rotatable=0;whiteSpace=wrap;html=1;" parent="a0niVXII9TF6bNpHhuru-13" vertex="1">
          <mxGeometry y="30" width="380" height="30" as="geometry" />
        </mxCell>
        <mxCell id="a0niVXII9TF6bNpHhuru-15" value="user_id (идентификатор пользователя)&lt;div&gt;INTEGER NOT NULL&lt;/div&gt;&lt;div&gt;&lt;br&gt;&lt;/div&gt;" style="text;strokeColor=none;fillColor=none;align=left;verticalAlign=middle;spacingLeft=4;spacingRight=4;overflow=hidden;points=[[0,0.5],[1,0.5]];portConstraint=eastwest;rotatable=0;whiteSpace=wrap;html=1;" parent="a0niVXII9TF6bNpHhuru-13" vertex="1">
          <mxGeometry y="60" width="380" height="30" as="geometry" />
        </mxCell>
        <mxCell id="a0niVXII9TF6bNpHhuru-16" value="order_date (дата заказа)&lt;div&gt;TIMESTAMP (PK ??)&lt;/div&gt;&lt;div&gt;&lt;br&gt;&lt;/div&gt;" style="text;strokeColor=none;fillColor=none;align=left;verticalAlign=middle;spacingLeft=4;spacingRight=4;overflow=hidden;points=[[0,0.5],[1,0.5]];portConstraint=eastwest;rotatable=0;whiteSpace=wrap;html=1;" parent="a0niVXII9TF6bNpHhuru-13" vertex="1">
          <mxGeometry y="90" width="380" height="30" as="geometry" />
        </mxCell>
        <mxCell id="a0niVXII9TF6bNpHhuru-38" value="order_status (статус заказа: отправлен, в обработке и т.п.)&amp;nbsp;&lt;div&gt;VARCHAR () NOT NULL&lt;/div&gt;" style="text;strokeColor=none;fillColor=none;align=left;verticalAlign=middle;spacingLeft=4;spacingRight=4;overflow=hidden;points=[[0,0.5],[1,0.5]];portConstraint=eastwest;rotatable=0;whiteSpace=wrap;html=1;" parent="a0niVXII9TF6bNpHhuru-13" vertex="1">
          <mxGeometry y="120" width="380" height="30" as="geometry" />
        </mxCell>
        <mxCell id="a0niVXII9TF6bNpHhuru-37" value="&lt;span style=&quot;color: rgb(0, 0, 0); font-family: Helvetica; font-size: 12px; font-style: normal; font-variant-ligatures: normal; font-variant-caps: normal; font-weight: 400; letter-spacing: normal; orphans: 2; text-align: left; text-indent: 0px; text-transform: none; widows: 2; word-spacing: 0px; -webkit-text-stroke-width: 0px; background-color: rgb(251, 251, 251); text-decoration-thickness: initial; text-decoration-style: initial; text-decoration-color: initial; float: none; display: inline !important;&quot;&gt;full_order_price (общая цена заказа)&amp;nbsp;&lt;/span&gt;&lt;div&gt;&lt;span style=&quot;color: rgb(0, 0, 0); font-family: Helvetica; font-size: 12px; font-style: normal; font-variant-ligatures: normal; font-variant-caps: normal; font-weight: 400; letter-spacing: normal; orphans: 2; text-align: left; text-indent: 0px; text-transform: none; widows: 2; word-spacing: 0px; -webkit-text-stroke-width: 0px; background-color: rgb(251, 251, 251); text-decoration-thickness: initial; text-decoration-style: initial; text-decoration-color: initial; float: none; display: inline !important;&quot;&gt;FLOAT NOT NULL&lt;/span&gt;&lt;/div&gt;" style="text;strokeColor=none;fillColor=none;align=left;verticalAlign=middle;spacingLeft=4;spacingRight=4;overflow=hidden;points=[[0,0.5],[1,0.5]];portConstraint=eastwest;rotatable=0;whiteSpace=wrap;html=1;" parent="a0niVXII9TF6bNpHhuru-13" vertex="1">
          <mxGeometry y="150" width="380" height="30" as="geometry" />
        </mxCell>
        <mxCell id="a0niVXII9TF6bNpHhuru-40" value="amount_of_wine (список вин и их кол-во)&lt;div&gt;FLOAT NOT NULL&lt;/div&gt;" style="text;strokeColor=none;fillColor=none;align=left;verticalAlign=middle;spacingLeft=4;spacingRight=4;overflow=hidden;points=[[0,0.5],[1,0.5]];portConstraint=eastwest;rotatable=0;whiteSpace=wrap;html=1;" parent="a0niVXII9TF6bNpHhuru-13" vertex="1">
          <mxGeometry y="180" width="380" height="30" as="geometry" />
        </mxCell>
        <mxCell id="a0niVXII9TF6bNpHhuru-17" value="basket (Корзина)" style="swimlane;fontStyle=0;childLayout=stackLayout;horizontal=1;startSize=30;horizontalStack=0;resizeParent=1;resizeParentMax=0;resizeLast=0;collapsible=1;marginBottom=0;whiteSpace=wrap;html=1;" parent="1" vertex="1">
          <mxGeometry x="817" y="-80" width="313" height="210" as="geometry" />
        </mxCell>
        <mxCell id="a0niVXII9TF6bNpHhuru-18" value="&lt;span style=&quot;color: rgb(0, 0, 0); font-family: Helvetica; font-size: 12px; font-style: normal; font-variant-ligatures: normal; font-variant-caps: normal; font-weight: 400; letter-spacing: normal; orphans: 2; text-align: left; text-indent: 0px; text-transform: none; widows: 2; word-spacing: 0px; -webkit-text-stroke-width: 0px; white-space: normal; background-color: rgb(251, 251, 251); text-decoration-thickness: initial; text-decoration-style: initial; text-decoration-color: initial; display: inline !important; float: none;&quot;&gt;basket_id SERIAL&amp;nbsp;&lt;/span&gt;&amp;nbsp;PK" style="text;strokeColor=none;fillColor=none;align=left;verticalAlign=middle;spacingLeft=4;spacingRight=4;overflow=hidden;points=[[0,0.5],[1,0.5]];portConstraint=eastwest;rotatable=0;whiteSpace=wrap;html=1;" parent="a0niVXII9TF6bNpHhuru-17" vertex="1">
          <mxGeometry y="30" width="313" height="30" as="geometry" />
        </mxCell>
        <mxCell id="a0niVXII9TF6bNpHhuru-19" value="user_id (идентификатор пользователя)&amp;nbsp;&lt;div&gt;INTEGER NOT NULL&lt;/div&gt;" style="text;strokeColor=none;fillColor=none;align=left;verticalAlign=middle;spacingLeft=4;spacingRight=4;overflow=hidden;points=[[0,0.5],[1,0.5]];portConstraint=eastwest;rotatable=0;whiteSpace=wrap;html=1;" parent="a0niVXII9TF6bNpHhuru-17" vertex="1">
          <mxGeometry y="60" width="313" height="30" as="geometry" />
        </mxCell>
        <mxCell id="a0niVXII9TF6bNpHhuru-59" value="wine_id (идентификатор вина)&lt;div&gt;INTEGER NOT NULL&lt;/div&gt;" style="text;strokeColor=none;fillColor=none;align=left;verticalAlign=middle;spacingLeft=4;spacingRight=4;overflow=hidden;points=[[0,0.5],[1,0.5]];portConstraint=eastwest;rotatable=0;whiteSpace=wrap;html=1;" parent="a0niVXII9TF6bNpHhuru-17" vertex="1">
          <mxGeometry y="90" width="313" height="30" as="geometry" />
        </mxCell>
        <mxCell id="qlW6Lua_Z220OA5_I48l-5" value="quantity (кол-во товара)&lt;div&gt;INTEGER NOT NULL&lt;/div&gt;" style="text;strokeColor=none;fillColor=none;align=left;verticalAlign=middle;spacingLeft=4;spacingRight=4;overflow=hidden;points=[[0,0.5],[1,0.5]];portConstraint=eastwest;rotatable=0;whiteSpace=wrap;html=1;" vertex="1" parent="a0niVXII9TF6bNpHhuru-17">
          <mxGeometry y="120" width="313" height="30" as="geometry" />
        </mxCell>
        <mxCell id="qlW6Lua_Z220OA5_I48l-6" value="price_for_one (цена за единицу товара)&amp;nbsp;&lt;br&gt;&lt;div&gt;&lt;span style=&quot;background-color: initial;&quot;&gt;DOUBLE PRECISION&lt;/span&gt;&amp;nbsp;NOT NULL&lt;/div&gt;" style="text;strokeColor=none;fillColor=none;align=left;verticalAlign=middle;spacingLeft=4;spacingRight=4;overflow=hidden;points=[[0,0.5],[1,0.5]];portConstraint=eastwest;rotatable=0;whiteSpace=wrap;html=1;" vertex="1" parent="a0niVXII9TF6bNpHhuru-17">
          <mxGeometry y="150" width="313" height="30" as="geometry" />
        </mxCell>
        <mxCell id="qlW6Lua_Z220OA5_I48l-7" value="total_price (общая стоимость товара в корзине)&lt;br&gt;&lt;div&gt;&lt;span style=&quot;background-color: initial;&quot;&gt;DOUBLE PRECISION&lt;/span&gt;&amp;nbsp;NOT NULL&amp;nbsp;&lt;/div&gt;" style="text;strokeColor=none;fillColor=none;align=left;verticalAlign=middle;spacingLeft=4;spacingRight=4;overflow=hidden;points=[[0,0.5],[1,0.5]];portConstraint=eastwest;rotatable=0;whiteSpace=wrap;html=1;" vertex="1" parent="a0niVXII9TF6bNpHhuru-17">
          <mxGeometry y="180" width="313" height="30" as="geometry" />
        </mxCell>
        <mxCell id="a0niVXII9TF6bNpHhuru-21" value="wines (Вино)" style="swimlane;fontStyle=0;childLayout=stackLayout;horizontal=1;startSize=30;horizontalStack=0;resizeParent=1;resizeParentMax=0;resizeLast=0;collapsible=1;marginBottom=0;whiteSpace=wrap;html=1;" parent="1" vertex="1">
          <mxGeometry x="440" y="290" width="295" height="210" as="geometry" />
        </mxCell>
        <mxCell id="a0niVXII9TF6bNpHhuru-22" value="&lt;span style=&quot;color: rgb(0, 0, 0); font-family: Helvetica; font-size: 12px; font-style: normal; font-variant-ligatures: normal; font-variant-caps: normal; font-weight: 400; letter-spacing: normal; orphans: 2; text-align: left; text-indent: 0px; text-transform: none; widows: 2; word-spacing: 0px; -webkit-text-stroke-width: 0px; white-space: normal; background-color: rgb(251, 251, 251); text-decoration-thickness: initial; text-decoration-style: initial; text-decoration-color: initial; display: inline !important; float: none;&quot;&gt;wine_id SERIAL&lt;/span&gt;&amp;nbsp;PK" style="text;strokeColor=none;fillColor=none;align=left;verticalAlign=middle;spacingLeft=4;spacingRight=4;overflow=hidden;points=[[0,0.5],[1,0.5]];portConstraint=eastwest;rotatable=0;whiteSpace=wrap;html=1;" parent="a0niVXII9TF6bNpHhuru-21" vertex="1">
          <mxGeometry y="30" width="295" height="30" as="geometry" />
        </mxCell>
        <mxCell id="a0niVXII9TF6bNpHhuru-23" value="title_wine (название вина)&amp;nbsp;&lt;div&gt;VARCHAR() NOT NULL&lt;/div&gt;" style="text;strokeColor=none;fillColor=none;align=left;verticalAlign=middle;spacingLeft=4;spacingRight=4;overflow=hidden;points=[[0,0.5],[1,0.5]];portConstraint=eastwest;rotatable=0;whiteSpace=wrap;html=1;" parent="a0niVXII9TF6bNpHhuru-21" vertex="1">
          <mxGeometry y="60" width="295" height="30" as="geometry" />
        </mxCell>
        <mxCell id="a0niVXII9TF6bNpHhuru-32" value="price_of_wine (стоимость вина)&lt;br&gt;&lt;div&gt;DOUBLE PRECISION NOT NULL&lt;/div&gt;" style="text;strokeColor=none;fillColor=none;align=left;verticalAlign=middle;spacingLeft=4;spacingRight=4;overflow=hidden;points=[[0,0.5],[1,0.5]];portConstraint=eastwest;rotatable=0;whiteSpace=wrap;html=1;" parent="a0niVXII9TF6bNpHhuru-21" vertex="1">
          <mxGeometry y="90" width="295" height="30" as="geometry" />
        </mxCell>
        <mxCell id="a0niVXII9TF6bNpHhuru-31" value="description_of_wine (описание вина)&amp;nbsp;&lt;div&gt;TEXT NOT NULL&lt;/div&gt;" style="text;strokeColor=none;fillColor=none;align=left;verticalAlign=middle;spacingLeft=4;spacingRight=4;overflow=hidden;points=[[0,0.5],[1,0.5]];portConstraint=eastwest;rotatable=0;whiteSpace=wrap;html=1;" parent="a0niVXII9TF6bNpHhuru-21" vertex="1">
          <mxGeometry y="120" width="295" height="30" as="geometry" />
        </mxCell>
        <mxCell id="a0niVXII9TF6bNpHhuru-29" value="rating_of_wine (рейтинг вина)&lt;div&gt;REAL NOT NULL&amp;nbsp;&lt;/div&gt;" style="text;strokeColor=none;fillColor=none;align=left;verticalAlign=middle;spacingLeft=4;spacingRight=4;overflow=hidden;points=[[0,0.5],[1,0.5]];portConstraint=eastwest;rotatable=0;whiteSpace=wrap;html=1;" parent="a0niVXII9TF6bNpHhuru-21" vertex="1">
          <mxGeometry y="150" width="295" height="30" as="geometry" />
        </mxCell>
        <mxCell id="a0niVXII9TF6bNpHhuru-33" value="photo_of_wine (фото бутлки)&amp;nbsp;&lt;div&gt;VARCHAR() NOT NULL&lt;/div&gt;" style="text;strokeColor=none;fillColor=none;align=left;verticalAlign=middle;spacingLeft=4;spacingRight=4;overflow=hidden;points=[[0,0.5],[1,0.5]];portConstraint=eastwest;rotatable=0;whiteSpace=wrap;html=1;" parent="a0niVXII9TF6bNpHhuru-21" vertex="1">
          <mxGeometry y="180" width="295" height="30" as="geometry" />
        </mxCell>
        <mxCell id="a0niVXII9TF6bNpHhuru-52" value="orderItems" style="swimlane;fontStyle=0;childLayout=stackLayout;horizontal=1;startSize=30;horizontalStack=0;resizeParent=1;resizeParentMax=0;resizeLast=0;collapsible=1;marginBottom=0;whiteSpace=wrap;html=1;" parent="1" vertex="1">
          <mxGeometry x="30" y="450" width="250" height="90" as="geometry" />
        </mxCell>
        <mxCell id="a0niVXII9TF6bNpHhuru-53" value="order_id (идентификатор заказа)&amp;nbsp;&lt;div&gt;INTEGER NOT NULL&lt;/div&gt;" style="text;strokeColor=none;fillColor=none;align=left;verticalAlign=middle;spacingLeft=4;spacingRight=4;overflow=hidden;points=[[0,0.5],[1,0.5]];portConstraint=eastwest;rotatable=0;whiteSpace=wrap;html=1;" parent="a0niVXII9TF6bNpHhuru-52" vertex="1">
          <mxGeometry y="30" width="250" height="30" as="geometry" />
        </mxCell>
        <mxCell id="a0niVXII9TF6bNpHhuru-54" value="wine_id (идентификатор вина)&amp;nbsp;&lt;div&gt;INTEGER NOT NULL&lt;/div&gt;" style="text;strokeColor=none;fillColor=none;align=left;verticalAlign=middle;spacingLeft=4;spacingRight=4;overflow=hidden;points=[[0,0.5],[1,0.5]];portConstraint=eastwest;rotatable=0;whiteSpace=wrap;html=1;" parent="a0niVXII9TF6bNpHhuru-52" vertex="1">
          <mxGeometry y="60" width="250" height="30" as="geometry" />
        </mxCell>
        <mxCell id="a0niVXII9TF6bNpHhuru-56" value="basketItems" style="swimlane;fontStyle=0;childLayout=stackLayout;horizontal=1;startSize=30;horizontalStack=0;resizeParent=1;resizeParentMax=0;resizeLast=0;collapsible=1;marginBottom=0;whiteSpace=wrap;html=1;" parent="1" vertex="1">
          <mxGeometry x="817" y="170" width="323" height="90" as="geometry" />
        </mxCell>
        <mxCell id="a0niVXII9TF6bNpHhuru-57" value="wine_id INTEGER NOT NULL" style="text;strokeColor=none;fillColor=none;align=left;verticalAlign=middle;spacingLeft=4;spacingRight=4;overflow=hidden;points=[[0,0.5],[1,0.5]];portConstraint=eastwest;rotatable=0;whiteSpace=wrap;html=1;" parent="a0niVXII9TF6bNpHhuru-56" vertex="1">
          <mxGeometry y="30" width="323" height="30" as="geometry" />
        </mxCell>
        <mxCell id="a0niVXII9TF6bNpHhuru-58" value="basket_id INTEGER NOT NULL" style="text;strokeColor=none;fillColor=none;align=left;verticalAlign=middle;spacingLeft=4;spacingRight=4;overflow=hidden;points=[[0,0.5],[1,0.5]];portConstraint=eastwest;rotatable=0;whiteSpace=wrap;html=1;" parent="a0niVXII9TF6bNpHhuru-56" vertex="1">
          <mxGeometry y="60" width="323" height="30" as="geometry" />
        </mxCell>
        <mxCell id="a0niVXII9TF6bNpHhuru-62" value="wineImages" style="swimlane;fontStyle=0;childLayout=stackLayout;horizontal=1;startSize=30;horizontalStack=0;resizeParent=1;resizeParentMax=0;resizeLast=0;collapsible=1;marginBottom=0;whiteSpace=wrap;html=1;" parent="1" vertex="1">
          <mxGeometry x="827" y="530" width="212.5" height="120" as="geometry" />
        </mxCell>
        <mxCell id="a0niVXII9TF6bNpHhuru-63" value="&lt;span style=&quot;color: rgb(0, 0, 0); font-family: Helvetica; font-size: 12px; font-style: normal; font-variant-ligatures: normal; font-variant-caps: normal; font-weight: 400; letter-spacing: normal; orphans: 2; text-align: left; text-indent: 0px; text-transform: none; widows: 2; word-spacing: 0px; -webkit-text-stroke-width: 0px; white-space: normal; background-color: rgb(251, 251, 251); text-decoration-thickness: initial; text-decoration-style: initial; text-decoration-color: initial; display: inline !important; float: none;&quot;&gt;img_id SERIAL&amp;nbsp;&lt;/span&gt;&amp;nbsp;PK" style="text;strokeColor=none;fillColor=none;align=left;verticalAlign=middle;spacingLeft=4;spacingRight=4;overflow=hidden;points=[[0,0.5],[1,0.5]];portConstraint=eastwest;rotatable=0;whiteSpace=wrap;html=1;" parent="a0niVXII9TF6bNpHhuru-62" vertex="1">
          <mxGeometry y="30" width="212.5" height="30" as="geometry" />
        </mxCell>
        <mxCell id="a0niVXII9TF6bNpHhuru-78" value="wine_id (идентификатор вина)&amp;nbsp;&lt;div&gt;INTEGER NOT NULL&lt;/div&gt;" style="text;strokeColor=none;fillColor=none;align=left;verticalAlign=middle;spacingLeft=4;spacingRight=4;overflow=hidden;points=[[0,0.5],[1,0.5]];portConstraint=eastwest;rotatable=0;whiteSpace=wrap;html=1;" parent="a0niVXII9TF6bNpHhuru-62" vertex="1">
          <mxGeometry y="60" width="212.5" height="30" as="geometry" />
        </mxCell>
        <mxCell id="a0niVXII9TF6bNpHhuru-64" value="url (ссылка фото)&amp;nbsp;&lt;div&gt;VARCHR() NOT NULL&lt;/div&gt;" style="text;strokeColor=none;fillColor=none;align=left;verticalAlign=middle;spacingLeft=4;spacingRight=4;overflow=hidden;points=[[0,0.5],[1,0.5]];portConstraint=eastwest;rotatable=0;whiteSpace=wrap;html=1;" parent="a0niVXII9TF6bNpHhuru-62" vertex="1">
          <mxGeometry y="90" width="212.5" height="30" as="geometry" />
        </mxCell>
        <mxCell id="a0niVXII9TF6bNpHhuru-66" value="wineCategories (Красное, сухое и т.д.)" style="swimlane;fontStyle=0;childLayout=stackLayout;horizontal=1;startSize=30;horizontalStack=0;resizeParent=1;resizeParentMax=0;resizeLast=0;collapsible=1;marginBottom=0;whiteSpace=wrap;html=1;" parent="1" vertex="1">
          <mxGeometry x="435" y="630" width="300" height="300" as="geometry" />
        </mxCell>
        <mxCell id="a0niVXII9TF6bNpHhuru-67" value="&lt;span style=&quot;color: rgb(0, 0, 0); font-family: Helvetica; font-size: 12px; font-style: normal; font-variant-ligatures: normal; font-variant-caps: normal; font-weight: 400; letter-spacing: normal; orphans: 2; text-align: left; text-indent: 0px; text-transform: none; widows: 2; word-spacing: 0px; -webkit-text-stroke-width: 0px; white-space: normal; background-color: rgb(251, 251, 251); text-decoration-thickness: initial; text-decoration-style: initial; text-decoration-color: initial; display: inline !important; float: none;&quot;&gt;category_id SERIAL&amp;nbsp;&lt;/span&gt;&amp;nbsp;PK" style="text;strokeColor=none;fillColor=none;align=left;verticalAlign=middle;spacingLeft=4;spacingRight=4;overflow=hidden;points=[[0,0.5],[1,0.5]];portConstraint=eastwest;rotatable=0;whiteSpace=wrap;html=1;" parent="a0niVXII9TF6bNpHhuru-66" vertex="1">
          <mxGeometry y="30" width="300" height="30" as="geometry" />
        </mxCell>
        <mxCell id="a0niVXII9TF6bNpHhuru-68" value="wine_color (цвет вина)&lt;div&gt;VARCHAR() NOT NULL&lt;/div&gt;" style="text;strokeColor=none;fillColor=none;align=left;verticalAlign=middle;spacingLeft=4;spacingRight=4;overflow=hidden;points=[[0,0.5],[1,0.5]];portConstraint=eastwest;rotatable=0;whiteSpace=wrap;html=1;" parent="a0niVXII9TF6bNpHhuru-66" vertex="1">
          <mxGeometry y="60" width="300" height="30" as="geometry" />
        </mxCell>
        <mxCell id="qlW6Lua_Z220OA5_I48l-31" value="level_of_gassing&amp;nbsp;(уровень газации)&lt;div&gt;VARCHAR() NOT NULL&lt;/div&gt;" style="text;strokeColor=none;fillColor=none;align=left;verticalAlign=middle;spacingLeft=4;spacingRight=4;overflow=hidden;points=[[0,0.5],[1,0.5]];portConstraint=eastwest;rotatable=0;whiteSpace=wrap;html=1;" vertex="1" parent="a0niVXII9TF6bNpHhuru-66">
          <mxGeometry y="90" width="300" height="30" as="geometry" />
        </mxCell>
        <mxCell id="qlW6Lua_Z220OA5_I48l-33" value="country_of_production (страна производителя)&lt;div&gt;VARCHAR() NOT NULL&lt;/div&gt;" style="text;strokeColor=none;fillColor=none;align=left;verticalAlign=middle;spacingLeft=4;spacingRight=4;overflow=hidden;points=[[0,0.5],[1,0.5]];portConstraint=eastwest;rotatable=0;whiteSpace=wrap;html=1;" vertex="1" parent="a0niVXII9TF6bNpHhuru-66">
          <mxGeometry y="120" width="300" height="30" as="geometry" />
        </mxCell>
        <mxCell id="qlW6Lua_Z220OA5_I48l-35" value="sugar_content (содержание сахара)&lt;div&gt;VARCHAR() NOT NULL&lt;/div&gt;" style="text;strokeColor=none;fillColor=none;align=left;verticalAlign=middle;spacingLeft=4;spacingRight=4;overflow=hidden;points=[[0,0.5],[1,0.5]];portConstraint=eastwest;rotatable=0;whiteSpace=wrap;html=1;" vertex="1" parent="a0niVXII9TF6bNpHhuru-66">
          <mxGeometry y="150" width="300" height="30" as="geometry" />
        </mxCell>
        <mxCell id="qlW6Lua_Z220OA5_I48l-36" value="alcohol_level (уровень алкоголя)&lt;div&gt;REAL NOT NULL&lt;/div&gt;" style="text;strokeColor=none;fillColor=none;align=left;verticalAlign=middle;spacingLeft=4;spacingRight=4;overflow=hidden;points=[[0,0.5],[1,0.5]];portConstraint=eastwest;rotatable=0;whiteSpace=wrap;html=1;" vertex="1" parent="a0niVXII9TF6bNpHhuru-66">
          <mxGeometry y="180" width="300" height="30" as="geometry" />
        </mxCell>
        <mxCell id="qlW6Lua_Z220OA5_I48l-37" value="region (регион производства)&lt;div&gt;VARCHAR() NOT NULL&lt;/div&gt;" style="text;strokeColor=none;fillColor=none;align=left;verticalAlign=middle;spacingLeft=4;spacingRight=4;overflow=hidden;points=[[0,0.5],[1,0.5]];portConstraint=eastwest;rotatable=0;whiteSpace=wrap;html=1;" vertex="1" parent="a0niVXII9TF6bNpHhuru-66">
          <mxGeometry y="210" width="300" height="30" as="geometry" />
        </mxCell>
        <mxCell id="qlW6Lua_Z220OA5_I48l-38" value="grape_variety (сорт винограда)&lt;div&gt;VARCHAR() NOT NULL&lt;/div&gt;" style="text;strokeColor=none;fillColor=none;align=left;verticalAlign=middle;spacingLeft=4;spacingRight=4;overflow=hidden;points=[[0,0.5],[1,0.5]];portConstraint=eastwest;rotatable=0;whiteSpace=wrap;html=1;" vertex="1" parent="a0niVXII9TF6bNpHhuru-66">
          <mxGeometry y="240" width="300" height="30" as="geometry" />
        </mxCell>
        <mxCell id="qlW6Lua_Z220OA5_I48l-39" value="year_of_harvest (год урожая)&amp;nbsp;&lt;div&gt;INTEGER NOT NULL&lt;/div&gt;" style="text;strokeColor=none;fillColor=none;align=left;verticalAlign=middle;spacingLeft=4;spacingRight=4;overflow=hidden;points=[[0,0.5],[1,0.5]];portConstraint=eastwest;rotatable=0;whiteSpace=wrap;html=1;" vertex="1" parent="a0niVXII9TF6bNpHhuru-66">
          <mxGeometry y="270" width="300" height="30" as="geometry" />
        </mxCell>
        <mxCell id="a0niVXII9TF6bNpHhuru-70" value="errorLogs (Ошибки)" style="swimlane;fontStyle=0;childLayout=stackLayout;horizontal=1;startSize=30;horizontalStack=0;resizeParent=1;resizeParentMax=0;resizeLast=0;collapsible=1;marginBottom=0;whiteSpace=wrap;html=1;" parent="1" vertex="1">
          <mxGeometry x="-36.25" y="606" width="382.5" height="180" as="geometry" />
        </mxCell>
        <mxCell id="a0niVXII9TF6bNpHhuru-71" value="&lt;span style=&quot;color: rgb(0, 0, 0); font-family: Helvetica; font-size: 12px; font-style: normal; font-variant-ligatures: normal; font-variant-caps: normal; font-weight: 400; letter-spacing: normal; orphans: 2; text-align: left; text-indent: 0px; text-transform: none; widows: 2; word-spacing: 0px; -webkit-text-stroke-width: 0px; white-space: normal; background-color: rgb(251, 251, 251); text-decoration-thickness: initial; text-decoration-style: initial; text-decoration-color: initial; display: inline !important; float: none;&quot;&gt;error_id SERIAL&amp;nbsp;&lt;/span&gt;&amp;nbsp;PK" style="text;strokeColor=none;fillColor=none;align=left;verticalAlign=middle;spacingLeft=4;spacingRight=4;overflow=hidden;points=[[0,0.5],[1,0.5]];portConstraint=eastwest;rotatable=0;whiteSpace=wrap;html=1;" parent="a0niVXII9TF6bNpHhuru-70" vertex="1">
          <mxGeometry y="30" width="382.5" height="30" as="geometry" />
        </mxCell>
        <mxCell id="a0niVXII9TF6bNpHhuru-72" value="timestamp (временная метка возникновения ошибки)&amp;nbsp;&lt;div&gt;TIMESTAMP (РК ??)&lt;/div&gt;" style="text;strokeColor=none;fillColor=none;align=left;verticalAlign=middle;spacingLeft=4;spacingRight=4;overflow=hidden;points=[[0,0.5],[1,0.5]];portConstraint=eastwest;rotatable=0;whiteSpace=wrap;html=1;" parent="a0niVXII9TF6bNpHhuru-70" vertex="1">
          <mxGeometry y="60" width="382.5" height="30" as="geometry" />
        </mxCell>
        <mxCell id="a0niVXII9TF6bNpHhuru-79" value="error_message (сообщение об ошибке)&amp;nbsp;&lt;div&gt;TEXT&amp;nbsp;&lt;/div&gt;" style="text;strokeColor=none;fillColor=none;align=left;verticalAlign=middle;spacingLeft=4;spacingRight=4;overflow=hidden;points=[[0,0.5],[1,0.5]];portConstraint=eastwest;rotatable=0;whiteSpace=wrap;html=1;" parent="a0niVXII9TF6bNpHhuru-70" vertex="1">
          <mxGeometry y="90" width="382.5" height="30" as="geometry" />
        </mxCell>
        <mxCell id="a0niVXII9TF6bNpHhuru-73" value="error_code (код ошибки)&amp;nbsp;&lt;div&gt;INTEGER&amp;nbsp;&lt;/div&gt;" style="text;strokeColor=none;fillColor=none;align=left;verticalAlign=middle;spacingLeft=4;spacingRight=4;overflow=hidden;points=[[0,0.5],[1,0.5]];portConstraint=eastwest;rotatable=0;whiteSpace=wrap;html=1;" parent="a0niVXII9TF6bNpHhuru-70" vertex="1">
          <mxGeometry y="120" width="382.5" height="30" as="geometry" />
        </mxCell>
        <mxCell id="a0niVXII9TF6bNpHhuru-80" value="stack_trace (стек вызовов и подробная информация об ошибке)&amp;nbsp;&lt;div&gt;TEXT&lt;/div&gt;" style="text;strokeColor=none;fillColor=none;align=left;verticalAlign=middle;spacingLeft=4;spacingRight=4;overflow=hidden;points=[[0,0.5],[1,0.5]];portConstraint=eastwest;rotatable=0;whiteSpace=wrap;html=1;" parent="a0niVXII9TF6bNpHhuru-70" vertex="1">
          <mxGeometry y="150" width="382.5" height="30" as="geometry" />
        </mxCell>
        <mxCell id="a0niVXII9TF6bNpHhuru-74" value="discounts (Скидки)" style="swimlane;fontStyle=0;childLayout=stackLayout;horizontal=1;startSize=30;horizontalStack=0;resizeParent=1;resizeParentMax=0;resizeLast=0;collapsible=1;marginBottom=0;whiteSpace=wrap;html=1;" parent="1" vertex="1">
          <mxGeometry x="827" y="320" width="230" height="180" as="geometry" />
        </mxCell>
        <mxCell id="a0niVXII9TF6bNpHhuru-75" value="&lt;span style=&quot;color: rgb(0, 0, 0); font-family: Helvetica; font-size: 12px; font-style: normal; font-variant-ligatures: normal; font-variant-caps: normal; font-weight: 400; letter-spacing: normal; orphans: 2; text-align: left; text-indent: 0px; text-transform: none; widows: 2; word-spacing: 0px; -webkit-text-stroke-width: 0px; white-space: normal; background-color: rgb(251, 251, 251); text-decoration-thickness: initial; text-decoration-style: initial; text-decoration-color: initial; display: inline !important; float: none;&quot;&gt;discount_id SERIAL&amp;nbsp;&lt;/span&gt;&amp;nbsp;PK" style="text;strokeColor=none;fillColor=none;align=left;verticalAlign=middle;spacingLeft=4;spacingRight=4;overflow=hidden;points=[[0,0.5],[1,0.5]];portConstraint=eastwest;rotatable=0;whiteSpace=wrap;html=1;" parent="a0niVXII9TF6bNpHhuru-74" vertex="1">
          <mxGeometry y="30" width="230" height="30" as="geometry" />
        </mxCell>
        <mxCell id="a0niVXII9TF6bNpHhuru-76" value="name_discount (название скидки)&lt;div&gt;&lt;span style=&quot;background-color: initial;&quot;&gt;VARCHAR() NOT NULL&lt;/span&gt;&lt;/div&gt;" style="text;strokeColor=none;fillColor=none;align=left;verticalAlign=middle;spacingLeft=4;spacingRight=4;overflow=hidden;points=[[0,0.5],[1,0.5]];portConstraint=eastwest;rotatable=0;whiteSpace=wrap;html=1;" parent="a0niVXII9TF6bNpHhuru-74" vertex="1">
          <mxGeometry y="60" width="230" height="30" as="geometry" />
        </mxCell>
        <mxCell id="a0niVXII9TF6bNpHhuru-77" value="percent_discount (процент скидки)&lt;div&gt;REAL NOT NULL&lt;/div&gt;" style="text;strokeColor=none;fillColor=none;align=left;verticalAlign=middle;spacingLeft=4;spacingRight=4;overflow=hidden;points=[[0,0.5],[1,0.5]];portConstraint=eastwest;rotatable=0;whiteSpace=wrap;html=1;" parent="a0niVXII9TF6bNpHhuru-74" vertex="1">
          <mxGeometry y="90" width="230" height="30" as="geometry" />
        </mxCell>
        <mxCell id="a0niVXII9TF6bNpHhuru-81" value="start_date (дата начала)&lt;div&gt;DATE&lt;/div&gt;" style="text;strokeColor=none;fillColor=none;align=left;verticalAlign=middle;spacingLeft=4;spacingRight=4;overflow=hidden;points=[[0,0.5],[1,0.5]];portConstraint=eastwest;rotatable=0;whiteSpace=wrap;html=1;" parent="a0niVXII9TF6bNpHhuru-74" vertex="1">
          <mxGeometry y="120" width="230" height="30" as="geometry" />
        </mxCell>
        <mxCell id="a0niVXII9TF6bNpHhuru-82" value="end_date (дата окончания)&amp;nbsp;&lt;div&gt;DATE&amp;nbsp;&lt;/div&gt;" style="text;strokeColor=none;fillColor=none;align=left;verticalAlign=middle;spacingLeft=4;spacingRight=4;overflow=hidden;points=[[0,0.5],[1,0.5]];portConstraint=eastwest;rotatable=0;whiteSpace=wrap;html=1;" parent="a0niVXII9TF6bNpHhuru-74" vertex="1">
          <mxGeometry y="150" width="230" height="30" as="geometry" />
        </mxCell>
        <mxCell id="qlW6Lua_Z220OA5_I48l-10" value="" style="edgeStyle=entityRelationEdgeStyle;fontSize=12;html=1;endArrow=ERoneToMany;rounded=0;startSize=8;endSize=8;curved=1;exitX=0;exitY=0.5;exitDx=0;exitDy=0;" edge="1" parent="1" source="a0niVXII9TF6bNpHhuru-2" target="a0niVXII9TF6bNpHhuru-7">
          <mxGeometry width="100" height="100" relative="1" as="geometry">
            <mxPoint x="420" y="200" as="sourcePoint" />
            <mxPoint x="390" y="90" as="targetPoint" />
          </mxGeometry>
        </mxCell>
        <mxCell id="qlW6Lua_Z220OA5_I48l-28" value="true" style="edgeLabel;html=1;align=center;verticalAlign=middle;resizable=0;points=[];fontSize=12;" vertex="1" connectable="0" parent="qlW6Lua_Z220OA5_I48l-10">
          <mxGeometry x="0.1606" relative="1" as="geometry">
            <mxPoint as="offset" />
          </mxGeometry>
        </mxCell>
        <mxCell id="qlW6Lua_Z220OA5_I48l-11" value="" style="edgeStyle=entityRelationEdgeStyle;fontSize=12;html=1;endArrow=ERoneToMany;rounded=0;startSize=8;endSize=8;curved=1;exitX=0;exitY=0.5;exitDx=0;exitDy=0;" edge="1" parent="1" source="a0niVXII9TF6bNpHhuru-2" target="a0niVXII9TF6bNpHhuru-15">
          <mxGeometry width="100" height="100" relative="1" as="geometry">
            <mxPoint x="443.74" y="115.09" as="sourcePoint" />
            <mxPoint x="420" y="240" as="targetPoint" />
          </mxGeometry>
        </mxCell>
        <mxCell id="qlW6Lua_Z220OA5_I48l-29" value="true" style="edgeLabel;html=1;align=center;verticalAlign=middle;resizable=0;points=[];fontSize=12;" vertex="1" connectable="0" parent="qlW6Lua_Z220OA5_I48l-11">
          <mxGeometry x="0.4439" y="-5" relative="1" as="geometry">
            <mxPoint x="1" as="offset" />
          </mxGeometry>
        </mxCell>
        <mxCell id="qlW6Lua_Z220OA5_I48l-13" value="" style="edgeStyle=entityRelationEdgeStyle;fontSize=12;html=1;endArrow=ERoneToMany;rounded=0;startSize=8;endSize=8;curved=1;exitX=0;exitY=0.5;exitDx=0;exitDy=0;entryX=1;entryY=0.5;entryDx=0;entryDy=0;" edge="1" parent="1" source="a0niVXII9TF6bNpHhuru-22" target="a0niVXII9TF6bNpHhuru-8">
          <mxGeometry width="100" height="100" relative="1" as="geometry">
            <mxPoint x="482" y="44" as="sourcePoint" />
            <mxPoint x="370" y="290" as="targetPoint" />
          </mxGeometry>
        </mxCell>
        <mxCell id="qlW6Lua_Z220OA5_I48l-30" value="true" style="edgeLabel;html=1;align=center;verticalAlign=middle;resizable=0;points=[];fontSize=12;" vertex="1" connectable="0" parent="qlW6Lua_Z220OA5_I48l-13">
          <mxGeometry x="-0.1325" y="2" relative="1" as="geometry">
            <mxPoint y="1" as="offset" />
          </mxGeometry>
        </mxCell>
        <mxCell id="qlW6Lua_Z220OA5_I48l-17" value="" style="edgeStyle=entityRelationEdgeStyle;fontSize=12;html=1;endArrow=ERoneToMany;rounded=0;startSize=8;endSize=8;curved=1;entryX=-0.012;entryY=0.117;entryDx=0;entryDy=0;entryPerimeter=0;exitX=0.991;exitY=0.112;exitDx=0;exitDy=0;exitPerimeter=0;" edge="1" parent="1" source="a0niVXII9TF6bNpHhuru-21" target="a0niVXII9TF6bNpHhuru-62">
          <mxGeometry width="100" height="100" relative="1" as="geometry">
            <mxPoint x="740" y="305" as="sourcePoint" />
            <mxPoint x="390" y="310" as="targetPoint" />
          </mxGeometry>
        </mxCell>
        <mxCell id="qlW6Lua_Z220OA5_I48l-69" value="true" style="edgeLabel;html=1;align=center;verticalAlign=middle;resizable=0;points=[];fontSize=12;" vertex="1" connectable="0" parent="qlW6Lua_Z220OA5_I48l-17">
          <mxGeometry x="0.5303" y="7" relative="1" as="geometry">
            <mxPoint as="offset" />
          </mxGeometry>
        </mxCell>
        <mxCell id="qlW6Lua_Z220OA5_I48l-18" value="" style="edgeStyle=entityRelationEdgeStyle;fontSize=12;html=1;endArrow=ERoneToMany;rounded=0;startSize=8;endSize=8;curved=1;exitX=-0.006;exitY=0.95;exitDx=0;exitDy=0;exitPerimeter=0;entryX=0.997;entryY=0.078;entryDx=0;entryDy=0;entryPerimeter=0;" edge="1" parent="1" source="a0niVXII9TF6bNpHhuru-33" target="a0niVXII9TF6bNpHhuru-70">
          <mxGeometry width="100" height="100" relative="1" as="geometry">
            <mxPoint x="512" y="74" as="sourcePoint" />
            <mxPoint x="400" y="320" as="targetPoint" />
          </mxGeometry>
        </mxCell>
        <mxCell id="qlW6Lua_Z220OA5_I48l-63" value="true" style="edgeLabel;html=1;align=center;verticalAlign=middle;resizable=0;points=[];fontSize=12;" vertex="1" connectable="0" parent="qlW6Lua_Z220OA5_I48l-18">
          <mxGeometry x="0.0581" y="-3" relative="1" as="geometry">
            <mxPoint x="-1" as="offset" />
          </mxGeometry>
        </mxCell>
        <mxCell id="qlW6Lua_Z220OA5_I48l-19" value="" style="edgeStyle=entityRelationEdgeStyle;fontSize=12;html=1;endArrow=ERoneToMany;rounded=0;startSize=8;endSize=8;curved=1;exitX=-0.004;exitY=0.069;exitDx=0;exitDy=0;exitPerimeter=0;entryX=1.006;entryY=0.04;entryDx=0;entryDy=0;entryPerimeter=0;" edge="1" parent="1" source="a0niVXII9TF6bNpHhuru-74" target="a0niVXII9TF6bNpHhuru-21">
          <mxGeometry width="100" height="100" relative="1" as="geometry">
            <mxPoint x="522" y="84" as="sourcePoint" />
            <mxPoint x="410" y="330" as="targetPoint" />
          </mxGeometry>
        </mxCell>
        <mxCell id="qlW6Lua_Z220OA5_I48l-70" value="true" style="edgeLabel;html=1;align=center;verticalAlign=middle;resizable=0;points=[];fontSize=12;" vertex="1" connectable="0" parent="qlW6Lua_Z220OA5_I48l-19">
          <mxGeometry x="0.1686" y="3" relative="1" as="geometry">
            <mxPoint as="offset" />
          </mxGeometry>
        </mxCell>
        <mxCell id="qlW6Lua_Z220OA5_I48l-12" value="" style="edgeStyle=entityRelationEdgeStyle;fontSize=12;html=1;endArrow=ERmandOne;startArrow=ERmandOne;rounded=0;startSize=8;endSize=8;curved=1;entryX=-0.005;entryY=0.733;entryDx=0;entryDy=0;exitX=1;exitY=0.5;exitDx=0;exitDy=0;entryPerimeter=0;" edge="1" parent="1" source="a0niVXII9TF6bNpHhuru-2" target="a0niVXII9TF6bNpHhuru-19">
          <mxGeometry width="100" height="100" relative="1" as="geometry">
            <mxPoint x="720" y="95" as="sourcePoint" />
            <mxPoint x="817.5" y="125" as="targetPoint" />
          </mxGeometry>
        </mxCell>
        <mxCell id="qlW6Lua_Z220OA5_I48l-73" value="true" style="edgeLabel;html=1;align=center;verticalAlign=middle;resizable=0;points=[];fontSize=12;" vertex="1" connectable="0" parent="qlW6Lua_Z220OA5_I48l-12">
          <mxGeometry x="-0.034" y="-3" relative="1" as="geometry">
            <mxPoint y="1" as="offset" />
          </mxGeometry>
        </mxCell>
        <mxCell id="qlW6Lua_Z220OA5_I48l-53" value="wineItems" style="swimlane;fontStyle=0;childLayout=stackLayout;horizontal=1;startSize=26;horizontalStack=0;resizeParent=1;resizeParentMax=0;resizeLast=0;collapsible=1;marginBottom=0;align=center;fontSize=14;" vertex="1" parent="1">
          <mxGeometry x="575" y="520" width="160" height="86" as="geometry" />
        </mxCell>
        <mxCell id="qlW6Lua_Z220OA5_I48l-54" value="wine_id" style="text;strokeColor=none;fillColor=none;spacingLeft=4;spacingRight=4;overflow=hidden;rotatable=0;points=[[0,0.5],[1,0.5]];portConstraint=eastwest;fontSize=12;whiteSpace=wrap;html=1;" vertex="1" parent="qlW6Lua_Z220OA5_I48l-53">
          <mxGeometry y="26" width="160" height="30" as="geometry" />
        </mxCell>
        <mxCell id="qlW6Lua_Z220OA5_I48l-55" value="category_id" style="text;strokeColor=none;fillColor=none;spacingLeft=4;spacingRight=4;overflow=hidden;rotatable=0;points=[[0,0.5],[1,0.5]];portConstraint=eastwest;fontSize=12;whiteSpace=wrap;html=1;" vertex="1" parent="qlW6Lua_Z220OA5_I48l-53">
          <mxGeometry y="56" width="160" height="30" as="geometry" />
        </mxCell>
        <mxCell id="qlW6Lua_Z220OA5_I48l-58" value="" style="edgeStyle=entityRelationEdgeStyle;fontSize=12;html=1;endArrow=ERmany;startArrow=ERmany;rounded=0;startSize=8;endSize=8;curved=1;entryX=1;entryY=0.5;entryDx=0;entryDy=0;exitX=1;exitY=0.5;exitDx=0;exitDy=0;" edge="1" parent="1" source="qlW6Lua_Z220OA5_I48l-54" target="a0niVXII9TF6bNpHhuru-22">
          <mxGeometry width="100" height="100" relative="1" as="geometry">
            <mxPoint x="748" y="821.5" as="sourcePoint" />
            <mxPoint x="690" y="672.5" as="targetPoint" />
          </mxGeometry>
        </mxCell>
        <mxCell id="qlW6Lua_Z220OA5_I48l-61" value="true" style="edgeLabel;html=1;align=center;verticalAlign=middle;resizable=0;points=[];fontSize=12;" vertex="1" connectable="0" parent="qlW6Lua_Z220OA5_I48l-58">
          <mxGeometry x="-0.007" y="-2" relative="1" as="geometry">
            <mxPoint x="1" as="offset" />
          </mxGeometry>
        </mxCell>
        <mxCell id="qlW6Lua_Z220OA5_I48l-59" value="" style="edgeStyle=entityRelationEdgeStyle;fontSize=12;html=1;endArrow=ERmany;startArrow=ERmany;rounded=0;startSize=8;endSize=8;curved=1;exitX=1;exitY=0.5;exitDx=0;exitDy=0;entryX=1;entryY=0.5;entryDx=0;entryDy=0;" edge="1" parent="1" source="qlW6Lua_Z220OA5_I48l-55" target="a0niVXII9TF6bNpHhuru-67">
          <mxGeometry width="100" height="100" relative="1" as="geometry">
            <mxPoint x="290" y="670" as="sourcePoint" />
            <mxPoint x="750" y="660" as="targetPoint" />
          </mxGeometry>
        </mxCell>
        <mxCell id="qlW6Lua_Z220OA5_I48l-62" value="true" style="edgeLabel;html=1;align=center;verticalAlign=middle;resizable=0;points=[];fontSize=12;" vertex="1" connectable="0" parent="qlW6Lua_Z220OA5_I48l-59">
          <mxGeometry x="0.0556" y="-1" relative="1" as="geometry">
            <mxPoint as="offset" />
          </mxGeometry>
        </mxCell>
        <mxCell id="qlW6Lua_Z220OA5_I48l-64" value="" style="edgeStyle=entityRelationEdgeStyle;fontSize=12;html=1;endArrow=ERmany;startArrow=ERmany;rounded=0;startSize=8;endSize=8;curved=1;entryX=-0.006;entryY=-0.067;entryDx=0;entryDy=0;exitX=1;exitY=0.5;exitDx=0;exitDy=0;entryPerimeter=0;" edge="1" parent="1" source="a0niVXII9TF6bNpHhuru-54" target="a0niVXII9TF6bNpHhuru-23">
          <mxGeometry width="100" height="100" relative="1" as="geometry">
            <mxPoint x="745" y="571" as="sourcePoint" />
            <mxPoint x="745" y="345" as="targetPoint" />
          </mxGeometry>
        </mxCell>
        <mxCell id="qlW6Lua_Z220OA5_I48l-65" value="true" style="edgeLabel;html=1;align=center;verticalAlign=middle;resizable=0;points=[];fontSize=12;" vertex="1" connectable="0" parent="qlW6Lua_Z220OA5_I48l-64">
          <mxGeometry x="-0.007" y="-2" relative="1" as="geometry">
            <mxPoint x="1" as="offset" />
          </mxGeometry>
        </mxCell>
        <mxCell id="qlW6Lua_Z220OA5_I48l-66" value="" style="edgeStyle=entityRelationEdgeStyle;fontSize=12;html=1;endArrow=ERmany;startArrow=ERmany;rounded=0;startSize=8;endSize=8;curved=1;entryX=1;entryY=0.5;entryDx=0;entryDy=0;exitX=1;exitY=0.5;exitDx=0;exitDy=0;" edge="1" parent="1" source="a0niVXII9TF6bNpHhuru-14" target="a0niVXII9TF6bNpHhuru-53">
          <mxGeometry width="100" height="100" relative="1" as="geometry">
            <mxPoint x="-180" y="480" as="sourcePoint" />
            <mxPoint x="-110" y="460" as="targetPoint" />
          </mxGeometry>
        </mxCell>
        <mxCell id="qlW6Lua_Z220OA5_I48l-67" value="true" style="edgeLabel;html=1;align=center;verticalAlign=middle;resizable=0;points=[];fontSize=12;" vertex="1" connectable="0" parent="qlW6Lua_Z220OA5_I48l-66">
          <mxGeometry x="-0.007" y="-2" relative="1" as="geometry">
            <mxPoint x="1" as="offset" />
          </mxGeometry>
        </mxCell>
        <mxCell id="qlW6Lua_Z220OA5_I48l-71" value="" style="edgeStyle=entityRelationEdgeStyle;fontSize=12;html=1;endArrow=ERmany;startArrow=ERmany;rounded=0;startSize=8;endSize=8;curved=1;entryX=1;entryY=0.5;entryDx=0;entryDy=0;" edge="1" parent="1" target="a0niVXII9TF6bNpHhuru-18">
          <mxGeometry width="100" height="100" relative="1" as="geometry">
            <mxPoint x="1140" y="250" as="sourcePoint" />
            <mxPoint x="880" y="130" as="targetPoint" />
          </mxGeometry>
        </mxCell>
        <mxCell id="qlW6Lua_Z220OA5_I48l-72" value="true" style="edgeLabel;html=1;align=center;verticalAlign=middle;resizable=0;points=[];fontSize=12;" vertex="1" connectable="0" parent="qlW6Lua_Z220OA5_I48l-71">
          <mxGeometry x="0.1711" y="-1" relative="1" as="geometry">
            <mxPoint x="1" as="offset" />
          </mxGeometry>
        </mxCell>
        <mxCell id="qlW6Lua_Z220OA5_I48l-74" value="" style="edgeStyle=entityRelationEdgeStyle;fontSize=12;html=1;endArrow=ERmany;startArrow=ERmany;rounded=0;startSize=8;endSize=8;curved=1;entryX=0.009;entryY=0.667;entryDx=0;entryDy=0;entryPerimeter=0;" edge="1" parent="1" target="a0niVXII9TF6bNpHhuru-57">
          <mxGeometry width="100" height="100" relative="1" as="geometry">
            <mxPoint x="735" y="310" as="sourcePoint" />
            <mxPoint x="835" y="210" as="targetPoint" />
          </mxGeometry>
        </mxCell>
        <mxCell id="qlW6Lua_Z220OA5_I48l-75" value="true" style="edgeLabel;html=1;align=center;verticalAlign=middle;resizable=0;points=[];fontSize=12;" vertex="1" connectable="0" parent="qlW6Lua_Z220OA5_I48l-74">
          <mxGeometry x="0.368" y="-3" relative="1" as="geometry">
            <mxPoint as="offset" />
          </mxGeometry>
        </mxCell>
      </root>
    </mxGraphModel>
  </diagram>
</mxfile>
